<svg xmlns="http://www.w3.org/2000/svg" viewBox="0 0 628.64 195.88">
    <defs>
        <style>.cls-1{fill:#3d312d;}.cls-2{fill:#7fcaf2;}</style>
    </defs>
    <g id="logo">
        <path class="cls-1"
            d="M659.63,221.92a115.21,115.21,0,0,0,.45-11.55,115.13,115.13,0,0,0-.45-11.54,33.12,33.12,0,0,0-1.6-7.44q-3.67-11.88-17.15-11.89-13.27,0-16.92,11.89a32.56,32.56,0,0,0-1.61,7.44,115.13,115.13,0,0,0-.45,11.54,115.21,115.21,0,0,0,.45,11.55,32.35,32.35,0,0,0,1.61,7.43q3.87,11.9,16.92,11.89,13.26,0,17.15-11.89a32.91,32.91,0,0,0,1.6-7.43m45.17-85.41a6.1,6.1,0,0,1-2.06,4.8l-19,15.33a5.63,5.63,0,0,1-3.66,1.6,2.23,2.23,0,0,1-2.52-2.52V112.5a2,2,0,0,1,2.29-2.28h22.64a2,2,0,0,1,2.29,2.28Zm-30.08,22.64q9.6,6.63,13.95,19.89a82.38,82.38,0,0,1,3,13.5,140.19,140.19,0,0,1,.91,17.83,140.86,140.86,0,0,1-.91,17.73,81.75,81.75,0,0,1-3,13.6q-4.35,13-13.95,19.78c-6.4,4.5-14.26,4.85-23.55,4.85-7.32,0-13.35.71-18.07-1.65a28.14,28.14,0,0,1-11-9.26h-.22v8a2,2,0,0,1-2.29,2.29H592.17a2,2,0,0,1-2.29-2.29V112.5a2,2,0,0,1,2.29-2.28h27.44a2,2,0,0,1,2.29,2.28v52.82h.22a28.31,28.31,0,0,1,11-9.26q7.08-3.54,18.07-3.54,13.94,0,23.55,6.63M580.65,263.42a2,2,0,0,1-2.29,2.29H550.92a2,2,0,0,1-2.28-2.29V157.32a2,2,0,0,1,2.28-2.28h27.44a2,2,0,0,1,2.29,2.28ZM580.55,127a16.32,16.32,0,1,1-16.32-16.36A16.28,16.28,0,0,1,580.55,127M538.7,264.81a2,2,0,0,1-2.28,2.27H524.3q-18.52,0-26.42-8.35T490,231.87V112.5a2,2,0,0,1,2.28-2.28h27.44a2,2,0,0,1,2.29,2.29V229.56q0,5.73,2.29,8.14t7.31,2.4h4.81a2,2,0,0,1,2.28,2.27Zm181.44,9.13V104.56s0-13.33-13.08-13.33H441.7s-13.08,0-13.08,12.69v12.83h27.26c10.38,0,18.79,9.79,18.79,20.17s-8.41,20.16-18.79,20.16H428.62v63.67h27.26c10.38,0,18.79,9.79,18.79,20.17s-8.41,20.17-18.79,20.17H428.62v12.22s0,12.69,13.08,12.69H707.06s13.08.64,13.08-12.06"
            transform="translate(-91.5 -91.23)" />
        <path class="cls-2"
            d="M273.58,178.57l37.77-8.71a1.3,1.3,0,0,0,1.09-1.76,27.53,27.53,0,0,0-1.43-4.55c-.54-1.28-1.12-2.53-1.73-3.72a17.25,17.25,0,0,0-9.1-7.66,24.54,24.54,0,0,0-24.31,5.62A17.31,17.31,0,0,0,271,168.66c0,1.34,0,2.71.08,4.1a27.44,27.44,0,0,0,.72,4.72,1.28,1.28,0,0,0,1.74,1.09m81.33,37a62,62,0,0,1-17.42,18.78q-11.14,8.07-27.05,11.74-19.71,4.56-34.74-1t-23.64-20.05a74.1,74.1,0,0,1-5.71-11.19,98.18,98.18,0,0,1-4.63-15.18,112.2,112.2,0,0,1-2.64-15.78,65.55,65.55,0,0,1,.08-12.64q1.36-16.83,12.36-28.24T281,126.33q19.23-4.44,33.9,1.18a45.56,45.56,0,0,1,23.18,19.66,62.63,62.63,0,0,1,3.06,5.67c1,2,1.92,4.35,2.86,7s1.89,5.69,2.87,9.21,2,7.75,3.17,12.65c.37,1.58-.32,2.58-2.05,3l-69.34,16a1.28,1.28,0,0,0-1.1,1.75,20.65,20.65,0,0,0,2.9,6.08,20.16,20.16,0,0,0,11.14,9.43q7,2.39,16,.31A37,37,0,0,0,331.51,202c1.17-1.43,2.27-1.69,3.32-.76l19.07,11.1q2.28,1.23,1,3.27m-161.17,12q0,11.46-6.73,17.9t-19.62,6.45H135.32a1.52,1.52,0,0,1-1.72-1.72V204.93a1.52,1.52,0,0,1,1.72-1.72h32.07q12.9,0,19.62,6.58t6.73,17.76m-3.15-79.62q0,10.89-6.73,16.9t-18.76,6H135.32a1.51,1.51,0,0,1-1.72-1.71V127a1.52,1.52,0,0,1,1.72-1.72H165.1q12,0,18.76,5.87t6.73,16.75m226.13-11a18.8,18.8,0,0,0-18.79-18.8H367.3V105.73s0-14-14-14H310v0c-28.63.23-58.78,12.6-80.77,32.19a46.4,46.4,0,0,0-12-18.37q-15.18-14.33-47-14.32H94.36a2.53,2.53,0,0,0-2.86,2.86v189A2.53,2.53,0,0,0,94.36,286h73.89q31.8,0,49.69-13.89A42.67,42.67,0,0,0,230.59,256c21.86,18.91,51.36,30.81,79.42,31v0s0,0,14,0h29.29s14,0,14-14V259.71h30.63a18.79,18.79,0,1,0,0-37.58H367.3V155.71h30.63a18.8,18.8,0,0,0,18.79-18.79"
            transform="translate(-91.5 -91.23)" />
    </g>
</svg>