<svg xmlns="http://www.w3.org/2000/svg" xmlns:xlink="http://www.w3.org/1999/xlink" width="480.7" height="338.553" viewBox="0 0 480.7 338.553"><defs><linearGradient id="a" x1="0.329" y1="0.849" x2="0.977" y2="-0.291" gradientUnits="objectBoundingBox"><stop offset="0" stop-color="#d7b344"/><stop offset="1" stop-color="#43344e"/></linearGradient><linearGradient id="b" x1="0.352" y1="0.813" x2="0.92" y2="-0.158" xlink:href="#a"/><linearGradient id="c" x1="0.301" y1="0.746" x2="0.972" y2="-0.378" xlink:href="#a"/></defs><g transform="translate(-16.538 -30.68)"><path d="M249.759,352.651,25.885,220.338c-7.125-4-13.238-10.577-6.294-14.873l224.666-129.5c3.374-2.089,8.488-3.452,11.914-1.467L491.206,210.89c7.125,4.14,8.41,15.7,1.3,19.844L279.3,352.444a29.772,29.772,0,0,1-29.538.208Z" transform="translate(0 12.763)" fill="#d7b344"/><path d="M226.575,137.757l-83.4,48.811L118.83,171.981l84.592-55.651" transform="translate(30.465 25.509)" fill="url(#a)"/><path d="M356.929,219.81,198.7,309.853,118.83,259,281.356,150" transform="translate(30.465 35.536)" fill="url(#b)"/><path d="M187.845,210.1c-4.607,7.579-13.731,14.276-20.324,19.935-10.318,8.929-22.777,18.818-37.312,16.807-7.787-1.077-19.078-6.243-21.038-14.639-3.361-14.406,15.574-19.3,25.347-23.5,8.1-3.491,16.353-7.008,22.984-12.978a11.784,11.784,0,0,0,4.2-6.489,8.877,8.877,0,0,0-2.777-7.527c-6.009-5.931-16.742-3.751-22.063-10.629-7.462-9.76,10.383-17.183,19.467-21.18,13.121-5.736,16.43-22.569,18.17-44.476" transform="translate(27.47 22.259)" fill="none" stroke="#1b1464" stroke-miterlimit="10" stroke-width="2"/><path d="M148.562,230.278,157.27,215.6c9.539-7.45,33.107-25,33.107-25,6.814-8.566,25.58-27.254,25.58-27.254,13.342-9.812,63.165-36.339,66.916-36.793s16.807,2.453,18.818,2.6,8.111-3.971,8.111-3.971c18.092,1.493,35.781,16.327,44.23,22.751a22.751,22.751,0,0,1,8.592,16.469s.9,30.992.376,32.627-5.529,5.191-5.529,5.191.169-17.469-12.472-11.278-15.379,27.747-16.573,28.89-62.931,36.832-76.572,44.749c.13-3.893-.363-7.865-3.284-10.655-3.4-3.245-8.41-2.816-12.433-1.181a21.764,21.764,0,0,0-10.1,8.008c-3.634,4.478-5.386,10.383-6.256,15.976-.1.7-.48,10.383-.636,10.383-33.328,10.915-70.264-29.1-71-32.225S148.562,230.278,148.562,230.278Z" transform="translate(39.122 28.144)" fill="#68e1fd"/><path d="M148.522,230.308l8.708-14.678c9.539-7.45,33.107-25,33.107-25,6.814-8.566,25.58-27.254,25.58-27.254,13.342-9.812,63.165-36.339,66.916-36.793s16.807,2.453,18.818,2.6,8.111-3.971,8.111-3.971c18.092,1.492,35.781,16.327,44.23,22.751a22.751,22.751,0,0,1,8.592,16.469s.9,30.992.376,32.627-5.529,5.191-5.529,5.191.169-17.469-12.472-11.278-15.366,27.747-16.508,28.89-62.957,36.845-76.636,44.762c.13-3.893-.363-7.865-3.283-10.655-3.4-3.245-8.41-2.816-12.433-1.181a21.764,21.764,0,0,0-10.1,8.008c-3.634,4.477-5.386,10.383-6.255,15.976-.1.7-.48,10.383-.636,10.383-33.419,10.928-70.316-29.071-71.056-32.2S148.522,230.308,148.522,230.308Z" transform="translate(39.097 28.153)" fill="#2e2e75" opacity="0.33"/><path d="M174.817,234.888c12.459,7.9,25.269,11.369,46.981,8.475-.389,1.544-1.817,7.644-2.064,9.176-.1.7-.48,10.383-.636,10.383-33.328,10.915-70.264-29.1-71-32.225-.675-2.894.286-21.388.441-24.256C154.532,218.847,156,222.961,174.817,234.888Z" transform="translate(39.11 52.345)" fill="#2e2e75" opacity="0.33"/><path d="M157.777,222.74s-.182,5.01-.091,5.1a69.863,69.863,0,0,0,19.3,11.745l.091-4.88S165.512,229.086,157.777,222.74Z" transform="translate(42.029 57.2)" fill="#d7fbff"/><path d="M210.384,155.569c-2.6-2.479-25.7,23.218-27.15,26.683s-3.595,5.684,1.194,11.006,31.849,21.167,37.222,22.478,8.293,4.166,15.574-2.492,18.312-28.409,18.312-28.409S223.557,168.2,210.384,155.569Z" transform="translate(49.122 37.145)" fill="#a8ebef"/><path d="M186.172,172.712s-5.113-4.322-8.566-2.764,4.166,7.385,4.166,7.385Z" transform="translate(47.702 41.376)" fill="#1f1971"/><ellipse cx="21.336" cy="14.263" rx="21.336" ry="14.263" transform="matrix(0.435, -0.9, 0.9, 0.435, 361.598, 251.078)" fill="#2e2e75"/><ellipse cx="11.603" cy="7.761" rx="11.603" ry="7.761" transform="matrix(0.435, -0.9, 0.9, 0.435, 373.094, 245.233)" fill="#ddd"/><path d="M181.114,234.853a6.386,6.386,0,0,1-2.6-1.467c-1.3-1.428-.4-3.284.623-4.594a6.814,6.814,0,0,1,3.984-2.427,88.507,88.507,0,0,1,9.552-1.921c2.141-.311,4.3-.571,6.489-.727a25.151,25.151,0,0,1,7.008.078c2.427.519,1.856,3.647,1.012,5.269a16.43,16.43,0,0,1-6.489,6.1,14.834,14.834,0,0,1-6.126,1.882,28.474,28.474,0,0,1-6.853-.532,37.779,37.779,0,0,1-4.932-1.168C182.23,235.2,181.672,235.048,181.114,234.853Z" transform="translate(48.049 57.429)" fill="#a8ebef"/><path d="M148.41,209.525s4.036,7.917,6.411,9.928,3.517.649,3.816-1.363-1.194-23.231-1.531-23.231S150.915,197.741,148.41,209.525Z" transform="translate(39.274 48.897)" fill="#a8ebef"/><path d="M160.359,211.377c.714.337,1.505,1.012,2.064,1.3q6.035,3.66,12.031,7.4l6,3.725c1.3.818,4.231,1.8,2.933,3.751a25.423,25.423,0,0,1-5,5.256c-1.3,1.116-2.388,1.466-4,.519-2.933-1.713-5.866-3.4-8.786-5.191-2.245-1.3-4.815-3-5.516-5.71a50.5,50.5,0,0,1-1.505-8.618c-.078-.973-.247-3,1.3-2.738a2.22,2.22,0,0,1,.48.311Z" transform="translate(42.289 53.716)" fill="#a8ebef"/><path d="M199.55,252a2.466,2.466,0,0,1,1.765,2.31c0,2.479-2.258,2.362-4,2.427-2.167.091-21.648-6.489-34.327-16.43s-14.86-18.364-14.86-18.364l.117-6.489s3.1,13.484,19.727,23.361a122,122,0,0,0,21.583,10.11c2.336.831,4.685,1.583,7.073,2.245A23.169,23.169,0,0,1,199.55,252Z" transform="translate(39.191 55.029)" fill="#a8ebef"/><path d="M296.384,155.248l13.822.857s1.986.753.818-2.6-14.536-16.963-32.316-21.077c0,0-24.659-4.257-20.077-2.5C261.213,130.926,281.342,140.413,296.384,155.248Z" transform="translate(71.932 29.432)" fill="#a8ebef"/><path d="M287,169.63c4.516-3.193,9.085-6.372,13.471-9.656a22.971,22.971,0,0,0-8.085-2.6,41.532,41.532,0,0,0-5.191,0Z" transform="translate(80.55 37.71)" fill="#a8ebef"/><path d="M273.54,164.22a84.358,84.358,0,0,0-25.956,19.467,97.9,97.9,0,0,0-17.313,29.058,2.025,2.025,0,0,0,2.946,2.453c7.722-4.815,23.01-14.393,34.029-21.479l2.764-1.778v-.195l3.089-2.206Z" transform="translate(63.614 39.771)" fill="#a8ebef"/><path d="M288.585,157.63a71.578,71.578,0,0,0-11.888,2.725c-2.79.883-5.568,1.921-8.306,3.063l-.441,23.75,19.364-13.848.986-.7Z" transform="translate(74.876 37.809)" fill="#a8ebef"/><ellipse cx="22.063" cy="14.393" rx="22.063" ry="14.393" transform="matrix(0.435, -0.9, 0.9, 0.435, 252.54, 313.066)" fill="#0b096e"/><ellipse cx="12.005" cy="7.826" rx="12.005" ry="7.826" transform="matrix(0.435, -0.9, 0.9, 0.435, 264.133, 306.874)" fill="#ddd"/><path d="M204.581,35.157,195,30.68,160.52,50.472v122.8l18.728,10.422,23.841-84.9" transform="translate(42.881)" fill="#4949ad"/><path d="M174.95,89.416v83l34.911-20.428V68.56Z" transform="translate(47.179 11.282)" fill="#1b1464"/><path d="M177.243,99.67,167.25,54.337,202.577,34.13l9.578,44.684Z" transform="translate(44.885 1.027)" fill="#2f2d8e"/><path d="M190.458,92.438l8.5-5.568-5.451,15.652,5.451-3.18-14.068,33.3,4.776-21.1-4.776,2.128Z" transform="translate(50.139 16.735)" fill="#ffab31"/><path d="M162.68,84.63l12.472,6.827v11.252L162.68,96.051Z" transform="translate(43.524 16.068)" fill="#1b1464"/><path d="M170.685,90.42s3.725,1.168,2.881,5.957c0,0-11.291,1.441-10.967,14.458,0,0-.857,1.57-5.191,0C157.37,110.848,156.2,93.768,170.685,90.42Z" transform="translate(41.943 17.792)" fill="#fffffa"/><path d="M173.23,55.586l7.086,30.486,23.192-13.861s-6.775-29.551-7.086-29.551S173.23,55.586,173.23,55.586Z" transform="translate(46.666 3.568)" fill="#ffab31"/><path d="M188.057,50.958l-6.2,3.5a1.415,1.415,0,0,0-.675,1.557l3.673,15.937a1.415,1.415,0,0,0,2.1.9l5.97-3.569a1.415,1.415,0,0,0,.662-1.518l-3.491-15.885a1.415,1.415,0,0,0-2.038-.921Z" transform="translate(49.022 5.99)" fill="#1b1464"/><path d="M190.971,61.26C188.765,62.636,186.545,64,184.3,65.3l.61,2.6a1.1,1.1,0,0,0,1.635.7l4.659-2.777a1.1,1.1,0,0,0,.506-1.181Z" transform="translate(49.963 9.107)" fill="#a8ebef"/><path d="M183.37,61.219l.9,3.893c2.258-1.3,4.477-2.674,6.684-4.062l-.753-3.4Q186.783,59.48,183.37,61.219Z" transform="translate(49.686 8.032)" fill="#a8ebef"/><path d="M52.21,192.677c1.921-.324,3.491-.273,4.231.6-1.3,13.329,8.241,6.814,12.446,10.175l3.621-1.518q10.954-10.967,22.063-21.816c-2.531-1.83-4.984-3.764-7.437-5.684A233.427,233.427,0,0,0,52.21,192.677Z" transform="translate(10.624 42.812)" fill="url(#c)"/><path d="M88.4,191.584V134H75.86v58.065C80.195,193.349,84.75,193.544,88.4,191.584Z" transform="translate(17.667 30.771)" fill="#a83f1e"/><path d="M81.67,134.14V193.1a12.615,12.615,0,0,0,5-1.389V134.14Z" transform="translate(19.398 30.813)" fill="#7f2b14"/><path d="M106.63,153.849c7.787-.376,17.767-3.18,14.847-11.862-1.726-5.191-7.034-9.656-10.383-13.731s-2.6-6.8-6.489-10.772c3.232.13,7.917-.48,8.708-3.673.7-2.8-14.367-19.986-20.882-26.956a4.166,4.166,0,0,0-5.659-.415c-7.787,6.178-27.579,22.634-24.814,27.371,1.674,2.855,5.049,3.893,8.059,4.114-7.125,7.151-15.262,16.08-16.08,25.606-.714,8.254,7.787,9.357,15.574,8.929-5.438,6.606-20.194,25.437-16.872,31.148,1.778,3.011,7.5,4.01,10.889,4.685a108.2,108.2,0,0,0,22.323,2.154,68.785,68.785,0,0,0,22.193-3.348,31.148,31.148,0,0,0,10.824-5.957c3.465-3.258,1.531-6.723-.714-9.993C114.248,165.426,110.472,159.637,106.63,153.849Z" transform="translate(10.609 16.334)" fill="#77c457"/><path d="M96.273,110.259s-9.487-.623-16.093-.441l33.51,27.5s.9-3.193-5.023-9.747a134.675,134.675,0,0,1-12.394-17.313Z" transform="translate(18.954 23.559)" fill="#0d5b23"/><path d="M98.6,138.17H79.13l31.8,27.254a4.841,4.841,0,0,0,1.4-6.281C110.213,155.483,98.6,138.17,98.6,138.17Z" transform="translate(18.641 32.013)" fill="#0d5b23"/></g></svg>